<svg id="Layer_1" data-name="Layer 1" xmlns="http://www.w3.org/2000/svg" viewBox="0 0 46.12 26.27"><defs><style>.cls-1{fill:#00e776;}.cls-2{fill:#101111;}</style></defs><path class="cls-1" d="M23.45,7l22.67,6.61L18.27,2.2A12.78,12.78,0,0,1,23.45,7Z"/><path class="cls-1" d="M25.24,12.35l20.88,1.22L24.74,9.83A12.36,12.36,0,0,1,25.24,12.35Z"/><path class="cls-1" d="M24.74,17.31l21.38-3.74L25.24,14.79A12.5,12.5,0,0,1,24.74,17.31Z"/><path class="cls-1" d="M18.27,24.94,46.12,13.57,23.45,20.18A12.78,12.78,0,0,1,18.27,24.94Z"/><path class="cls-2" d="M24.74,9.83l21.38,3.74L23.45,7A12.59,12.59,0,0,1,24.74,9.83Z"/><path class="cls-2" d="M25.3,13.57c0,.41,0,.81-.06,1.22l20.88-1.22L25.24,12.35C25.28,12.75,25.3,13.16,25.3,13.57Z"/><path class="cls-2" d="M23.45,20.18l22.67-6.61L24.74,17.31A12.59,12.59,0,0,1,23.45,20.18Z"/><path class="cls-2" d="M16.49,1.47l1.78.73A12.55,12.55,0,0,0,16.49,1.47Z"/><path class="cls-2" d="M18.27,24.94l-1.78.72A12.5,12.5,0,0,0,18.27,24.94Z"/><path class="cls-2" d="M25.24,12.35a12.36,12.36,0,0,0-.5-2.52A12.59,12.59,0,0,0,23.45,7,12.78,12.78,0,0,0,18.27,2.2l-1.78-.73a12.7,12.7,0,1,0-3.89,24.8,12.52,12.52,0,0,0,3.89-.61l1.78-.72a12.78,12.78,0,0,0,5.18-4.76,12.64,12.64,0,0,0,1.79-5.39c0-.41.06-.81.06-1.22S25.28,12.75,25.24,12.35Z"/></svg>